<?xml version="1.0" encoding="utf-8"?>
<!-- Generator: Adobe Illustrator 27.3.1, SVG Export Plug-In . SVG Version: 6.00 Build 0)  -->
<svg version="1.1" id="Layer_1" xmlns="http://www.w3.org/2000/svg" xmlns:xlink="http://www.w3.org/1999/xlink" x="0px" y="0px"
	 viewBox="0 0 4096 512" style="enable-background:new 0 0 4096 512;" xml:space="preserve">
<g>
	<g>
		<path d="M452,93.6l72.1-87.3H97.9c-26.5,0-48,22.4-48,50v37.3h0.3V505h93.7V307.5h272.2l64.6-77.9H143.9V93.6H452z"/>
	</g>
	<g>
		<path d="M680.5,418.5V6.6h-94V455c0,27.9,21.7,50.5,48.5,50.5h426l-72.1-86.9H680.5z"/>
	</g>
	<g>
		<path d="M1518,94.1l72.1-87h-426.4c-26.4,0-47.8,22.3-47.8,49.8v398.4c0,27.5,21.4,49.8,47.8,49.8h426.4l-72.1-87.3h-308.1V295.9
			h307.9V219h-307.9V94.1H1518L1518,94.1z"/>
	</g>
	<g>
		<path d="M2234.1,6.6l72.1,87.3h160.7v411.5h94V93.9h156.3l72.1-87.3H2234.1z"/>
	</g>
	<g>
		<path d="M3974,418.5h-308.4V6.6h-94v448.8c0,27.6,21.5,50,48,50h426.5L3974,418.5z"/>
	</g>
	<g>
		<rect x="3391.5" y="7" width="94.1" height="498.8"/>
	</g>
	<g>
		<path d="M3327.7,213.8h-119.5L3063,47.2c-18.7-21.2-50.5-21.2-68.8,0l-145.1,166.6h-119.9L2910.8,7.6h235.4L3327.7,213.8z"/>
	</g>
	<g>
		<path d="M2192.4,7.1h-114.6l-159.2,183l-159.2-183h-114.7L1861.3,256L1644.8,505h114.6l159.2-183l159.2,183h114.6L1975.9,256
			L2192.4,7.1z"/>
	</g>
	<g>
		<path d="M3327.7,505.4h-119.5l-145.1-166.6c-18.5-21.2-50.5-21.2-68.9,0l-145,166.6h-119.9l181.6-206.2h235.4L3327.7,505.4
			L3327.7,505.4z"/>
	</g>
</g>
</svg>
